<svg id="visual" viewBox="0 0 960 540" width="960" height="540" xmlns="http://www.w3.org/2000/svg" xmlns:xlink="http://www.w3.org/1999/xlink" version="1.1"><rect x="0" y="0" width="960" height="540" fill="#001220"></rect><path d="M0 278L16 282.8C32 287.7 64 297.3 96 300C128 302.7 160 298.3 192 303C224 307.7 256 321.3 288 330.8C320 340.3 352 345.7 384 345.3C416 345 448 339 480 335.2C512 331.3 544 329.7 576 328C608 326.3 640 324.7 672 323.7C704 322.7 736 322.3 768 313.3C800 304.3 832 286.7 864 282.2C896 277.7 928 286.3 944 290.7L960 295L960 541L944 541C928 541 896 541 864 541C832 541 800 541 768 541C736 541 704 541 672 541C640 541 608 541 576 541C544 541 512 541 480 541C448 541 416 541 384 541C352 541 320 541 288 541C256 541 224 541 192 541C160 541 128 541 96 541C64 541 32 541 16 541L0 541Z" fill="#001220"></path><path d="M0 316L16 315.3C32 314.7 64 313.3 96 327.2C128 341 160 370 192 377.8C224 385.7 256 372.3 288 360C320 347.7 352 336.3 384 339.5C416 342.7 448 360.3 480 371.2C512 382 544 386 576 375.7C608 365.3 640 340.7 672 330C704 319.3 736 322.7 768 321.7C800 320.7 832 315.3 864 324.3C896 333.3 928 356.7 944 368.3L960 380L960 541L944 541C928 541 896 541 864 541C832 541 800 541 768 541C736 541 704 541 672 541C640 541 608 541 576 541C544 541 512 541 480 541C448 541 416 541 384 541C352 541 320 541 288 541C256 541 224 541 192 541C160 541 128 541 96 541C64 541 32 541 16 541L0 541Z" fill="#3a4551"></path><path d="M0 386L16 390.8C32 395.7 64 405.3 96 414.3C128 423.3 160 431.7 192 432.3C224 433 256 426 288 420.2C320 414.3 352 409.7 384 404.2C416 398.7 448 392.3 480 391.5C512 390.7 544 395.3 576 403.3C608 411.3 640 422.7 672 424.5C704 426.3 736 418.7 768 410.3C800 402 832 393 864 385.7C896 378.3 928 372.7 944 369.8L960 367L960 541L944 541C928 541 896 541 864 541C832 541 800 541 768 541C736 541 704 541 672 541C640 541 608 541 576 541C544 541 512 541 480 541C448 541 416 541 384 541C352 541 320 541 288 541C256 541 224 541 192 541C160 541 128 541 96 541C64 541 32 541 16 541L0 541Z" fill="#777e87"></path><path d="M0 453L16 453.2C32 453.3 64 453.7 96 450.5C128 447.3 160 440.7 192 437.7C224 434.7 256 435.3 288 439.2C320 443 352 450 384 450.7C416 451.3 448 445.7 480 439C512 432.3 544 424.7 576 419.8C608 415 640 413 672 414.3C704 415.7 736 420.3 768 430.3C800 440.3 832 455.7 864 452C896 448.3 928 425.7 944 414.3L960 403L960 541L944 541C928 541 896 541 864 541C832 541 800 541 768 541C736 541 704 541 672 541C640 541 608 541 576 541C544 541 512 541 480 541C448 541 416 541 384 541C352 541 320 541 288 541C256 541 224 541 192 541C160 541 128 541 96 541C64 541 32 541 16 541L0 541Z" fill="#b9bcc1"></path><path d="M0 477L16 482.3C32 487.7 64 498.3 96 497.7C128 497 160 485 192 476.3C224 467.7 256 462.3 288 470.5C320 478.7 352 500.3 384 502C416 503.7 448 485.3 480 479.2C512 473 544 479 576 483.5C608 488 640 491 672 486.5C704 482 736 470 768 471.2C800 472.3 832 486.7 864 485C896 483.3 928 465.7 944 456.8L960 448L960 541L944 541C928 541 896 541 864 541C832 541 800 541 768 541C736 541 704 541 672 541C640 541 608 541 576 541C544 541 512 541 480 541C448 541 416 541 384 541C352 541 320 541 288 541C256 541 224 541 192 541C160 541 128 541 96 541C64 541 32 541 16 541L0 541Z" fill="#ffffff"></path></svg>