<svg id="visual" viewBox="0 0 960 540" width="960" height="540" xmlns="http://www.w3.org/2000/svg" xmlns:xlink="http://www.w3.org/1999/xlink" version="1.1"><rect x="0" y="0" width="960" height="540" fill="#001220"></rect><path d="M0 132L22.8 130.8C45.7 129.7 91.3 127.3 137 131C182.7 134.7 228.3 144.3 274 147.2C319.7 150 365.3 146 411.2 145.5C457 145 503 148 548.8 148.8C594.7 149.7 640.3 148.3 686 143.7C731.7 139 777.3 131 823 127.7C868.7 124.3 914.3 125.7 937.2 126.3L960 127L960 0L937.2 0C914.3 0 868.7 0 823 0C777.3 0 731.7 0 686 0C640.3 0 594.7 0 548.8 0C503 0 457 0 411.2 0C365.3 0 319.7 0 274 0C228.3 0 182.7 0 137 0C91.3 0 45.7 0 22.8 0L0 0Z" fill="#001220"></path><path d="M0 144L22.8 136.7C45.7 129.3 91.3 114.7 137 107.5C182.7 100.3 228.3 100.7 274 107.8C319.7 115 365.3 129 411.2 132C457 135 503 127 548.8 124.3C594.7 121.7 640.3 124.3 686 123.7C731.7 123 777.3 119 823 121.2C868.7 123.3 914.3 131.7 937.2 135.8L960 140L960 0L937.2 0C914.3 0 868.7 0 823 0C777.3 0 731.7 0 686 0C640.3 0 594.7 0 548.8 0C503 0 457 0 411.2 0C365.3 0 319.7 0 274 0C228.3 0 182.7 0 137 0C91.3 0 45.7 0 22.8 0L0 0Z" fill="#3a4551"></path><path d="M0 89L22.8 93.2C45.7 97.3 91.3 105.7 137 108C182.7 110.3 228.3 106.7 274 102.5C319.7 98.3 365.3 93.7 411.2 92.5C457 91.3 503 93.7 548.8 93.2C594.7 92.7 640.3 89.3 686 87.5C731.7 85.7 777.3 85.3 823 88.7C868.7 92 914.3 99 937.2 102.5L960 106L960 0L937.2 0C914.3 0 868.7 0 823 0C777.3 0 731.7 0 686 0C640.3 0 594.7 0 548.8 0C503 0 457 0 411.2 0C365.3 0 319.7 0 274 0C228.3 0 182.7 0 137 0C91.3 0 45.7 0 22.8 0L0 0Z" fill="#777e87"></path><path d="M0 75L22.8 70.2C45.7 65.3 91.3 55.7 137 55.7C182.7 55.7 228.3 65.3 274 71.8C319.7 78.3 365.3 81.7 411.2 81.2C457 80.7 503 76.3 548.8 71.5C594.7 66.7 640.3 61.3 686 57C731.7 52.7 777.3 49.3 823 51.5C868.7 53.7 914.3 61.3 937.2 65.2L960 69L960 0L937.2 0C914.3 0 868.7 0 823 0C777.3 0 731.7 0 686 0C640.3 0 594.7 0 548.8 0C503 0 457 0 411.2 0C365.3 0 319.7 0 274 0C228.3 0 182.7 0 137 0C91.3 0 45.7 0 22.8 0L0 0Z" fill="#b9bcc1"></path><path d="M0 22L22.8 21.7C45.7 21.3 91.3 20.7 137 22C182.7 23.3 228.3 26.7 274 31C319.7 35.3 365.3 40.7 411.2 42C457 43.3 503 40.7 548.8 41C594.7 41.3 640.3 44.7 686 42C731.7 39.3 777.3 30.7 823 26.7C868.7 22.7 914.3 23.3 937.2 23.7L960 24L960 0L937.2 0C914.3 0 868.7 0 823 0C777.3 0 731.7 0 686 0C640.3 0 594.7 0 548.8 0C503 0 457 0 411.2 0C365.3 0 319.7 0 274 0C228.3 0 182.7 0 137 0C91.3 0 45.7 0 22.8 0L0 0Z" fill="#ffffff"></path></svg>